<?xml version="1.0" encoding="utf-8"?>
<!-- Generator: Adobe Illustrator 23.0.0, SVG Export Plug-In . SVG Version: 6.00 Build 0)  -->
<svg version="1.1" id="Capa_1" xmlns="http://www.w3.org/2000/svg" xmlns:xlink="http://www.w3.org/1999/xlink" x="0px" y="0px"
	 viewBox="0 0 50 50" style="enable-background:new 0 0 50 50;" xml:space="preserve">
<style type="text/css">
	.st0{fill:#FFFFFF;}
</style>
<g>
	<g>
		<path class="st0" d="M25,0.2C11.3,0.2,0.2,11.3,0.2,25c0,13.7,11.1,24.8,24.8,24.8c13.7,0,24.8-11.1,24.8-24.8
			C49.8,11.3,38.7,0.2,25,0.2z M31.2,25.9h-4c0,6.5,0,14.4,0,14.4h-6c0,0,0-7.9,0-14.4h-2.8v-5.1h2.8v-3.3c0-2.4,1.1-6,6-6l4.4,0
			v4.9c0,0-2.7,0-3.2,0s-1.3,0.3-1.3,1.4v3h4.6L31.2,25.9z"/>
	</g>
</g>
</svg>
