<?xml version="1.0" encoding="utf-8"?>
<!-- Generator: Adobe Illustrator 23.0.0, SVG Export Plug-In . SVG Version: 6.00 Build 0)  -->
<svg version="1.1" id="Layer_1" xmlns="http://www.w3.org/2000/svg" xmlns:xlink="http://www.w3.org/1999/xlink" x="0px" y="0px"
	 viewBox="0 0 50 50" style="enable-background:new 0 0 50 50;" xml:space="preserve">
<style type="text/css">
	.st0{fill:#FFFFFF;}
</style>
<g>
	<path class="st0" d="M25,19.1c-3.3,0-5.9,2.7-5.9,5.9c0,3.3,2.7,5.9,5.9,5.9s5.9-2.7,5.9-5.9C30.9,21.7,28.3,19.1,25,19.1z"/>
	<path class="st0" d="M25,0C11.2,0,0,11.2,0,25s11.2,25,25,25s25-11.2,25-25S38.8,0,25,0z M42.5,32.9c0,5.3-4.3,9.7-9.7,9.7H17.1
		c-5.3,0-9.7-4.3-9.7-9.7V17.1c0-5.3,4.3-9.7,9.7-9.7h15.7c5.3,0,9.7,4.3,9.7,9.7V32.9z"/>
	<path class="st0" d="M39.4,17.1c0-3.6-2.9-6.6-6.6-6.6H17.1c-3.6,0-6.6,2.9-6.6,6.6v15.7c0,3.6,2.9,6.6,6.6,6.6h15.7
		c3.6,0,6.6-2.9,6.6-6.6h0V17.1z M25,34c-5,0-9-4.1-9-9c0-5,4.1-9,9-9s9,4.1,9,9C34,30,30,34,25,34z M36,17.2
		c-0.4,0.4-1,0.7-1.6,0.7c-0.6,0-1.2-0.2-1.6-0.7c-0.4-0.4-0.7-1-0.7-1.6c0-0.6,0.2-1.2,0.7-1.6c0.4-0.4,1-0.7,1.6-0.7
		c0.6,0,1.2,0.2,1.6,0.7c0.4,0.4,0.7,1,0.7,1.6C36.7,16.2,36.5,16.8,36,17.2z"/>
</g>
</svg>
